<svg xmlns="http://www.w3.org/2000/svg" width="317" height="158" viewBox="0 0 317 158" fill="none"><g clip-path="url(#clip0_10_81)"><path d="M0 111.81L0.7925 111.487L1.585 111.165L2.3775 110.844L3.17 110.523L3.9625 110.203L4.755 109.886L5.5475 109.57L6.34 109.256L7.1325 108.945L7.925 108.636L8.7175 108.331L9.51 108.029L10.3025 107.731L11.095 107.437L11.8875 107.148L12.68 106.862L13.4725 106.582L14.265 106.307L15.0575 106.037L15.85 105.773L16.6425 105.515L17.435 105.264L18.2275 105.018L19.02 104.78L19.8125 104.548L20.605 104.324L21.3975 104.106L22.19 103.897L22.9825 103.695L23.775 103.501L24.5675 103.316L25.36 103.139L26.1525 102.97L26.945 102.81L27.7375 102.659L28.53 102.517L29.3225 102.385L30.115 102.261L30.9075 102.147L31.7 102.043L32.4925 101.948L33.285 101.863L34.0775 101.787L34.87 101.722L35.6625 101.666L36.455 101.621L37.2475 101.586L38.04 101.56L38.8325 101.545L39.625 101.54L40.4175 101.545L41.21 101.56L42.0025 101.586L42.795 101.621L43.5875 101.666L44.38 101.722L45.1725 101.787L45.965 101.863L46.7575 101.948L47.55 102.043L48.3425 102.147L49.135 102.261L49.9275 102.385L50.72 102.517L51.5125 102.659L52.305 102.81L53.0975 102.97L53.89 103.139L54.6825 103.316L55.475 103.501L56.2675 103.695L57.06 103.897L57.8525 104.106L58.645 104.324L59.4375 104.548L60.23 104.78L61.0225 105.018L61.815 105.264L62.6075 105.515L63.4 105.773L64.1925 106.037L64.985 106.307L65.7775 106.582L66.57 106.862L67.3625 107.148L68.155 107.437L68.9475 107.731L69.74 108.029L70.5325 108.331L71.325 108.636L72.1175 108.945L72.91 109.256L73.7025 109.57L74.495 109.886L75.2875 110.203L76.08 110.523L76.8725 110.844L77.665 111.165L78.4575 111.487L79.25 111.81L80.0425 112.133L80.835 112.455L81.6275 112.777L82.42 113.097L83.2125 113.417L84.005 113.734L84.7975 114.05L85.59 114.364L86.3825 114.675L87.175 114.984L87.9675 115.289L88.76 115.591L89.5525 115.889L90.345 116.183L91.1375 116.473L91.93 116.758L92.7225 117.038L93.515 117.313L94.3075 117.583L95.1 117.847L95.8925 118.105L96.685 118.356L97.4775 118.602L98.27 118.84L99.0625 119.072L99.855 119.297L100.648 119.514L101.44 119.723L102.233 119.925L103.025 120.119L103.818 120.304L104.61 120.481L105.403 120.65L106.195 120.81L106.988 120.961L107.78 121.103L108.573 121.235L109.365 121.359L110.158 121.473L110.95 121.577L111.743 121.672L112.535 121.757L113.328 121.833L114.12 121.898L114.913 121.954L115.705 121.999L116.498 122.034L117.29 122.06L118.083 122.075L118.875 122.08L119.668 122.075L120.46 122.06L121.253 122.034L122.045 121.999L122.838 121.954L123.63 121.898L124.423 121.833L125.215 121.757L126.008 121.672L126.8 121.577L127.593 121.473L128.385 121.359L129.178 121.235L129.97 121.103L130.763 120.961L131.555 120.81L132.348 120.65L133.14 120.481L133.933 120.304L134.725 120.119L135.518 119.925L136.31 119.723L137.103 119.514L137.895 119.297L138.688 119.072L139.48 118.84L140.273 118.602L141.065 118.356L141.858 118.105L142.65 117.847L143.443 117.583L144.235 117.313L145.028 117.038L145.82 116.758L146.613 116.473L147.405 116.183L148.198 115.889L148.99 115.591L149.783 115.289L150.575 114.984L151.368 114.675L152.16 114.364L152.953 114.05L153.745 113.734L154.538 113.417L155.33 113.097L156.123 112.777L156.915 112.455L157.708 112.133L158.5 111.81L159.293 111.487L160.085 111.165L160.878 110.844L161.67 110.523L162.463 110.203L163.255 109.886L164.048 109.57L164.84 109.256L165.633 108.945L166.425 108.636L167.218 108.331L168.01 108.029L168.803 107.731L169.595 107.437L170.388 107.148L171.18 106.862L171.973 106.582L172.765 106.307L173.558 106.037L174.35 105.773L175.143 105.515L175.935 105.264L176.728 105.018L177.52 104.78L178.313 104.548L179.105 104.324L179.898 104.106L180.69 103.897L181.483 103.695L182.275 103.501L183.068 103.316L183.86 103.139L184.653 102.97L185.445 102.81L186.238 102.659L187.03 102.517L187.823 102.385L188.615 102.261L189.408 102.147L190.2 102.043L190.993 101.948L191.785 101.863L192.578 101.787L193.37 101.722L194.163 101.666L194.955 101.621L195.748 101.586L196.54 101.56L197.333 101.545L198.125 101.54L198.918 101.545L199.71 101.56L200.503 101.586L201.295 101.621L202.088 101.666L202.88 101.722L203.673 101.787L204.465 101.863L205.258 101.948L206.05 102.043L206.843 102.147L207.635 102.261L208.428 102.385L209.22 102.517L210.013 102.659L210.805 102.81L211.598 102.97L212.39 103.139L213.183 103.316L213.975 103.501L214.768 103.695L215.56 103.897L216.353 104.106L217.145 104.324L217.938 104.548L218.73 104.78L219.523 105.018L220.315 105.264L221.108 105.515L221.9 105.773L222.693 106.037L223.485 106.307L224.278 106.582L225.07 106.862L225.863 107.148L226.655 107.437L227.448 107.731L228.24 108.029L229.033 108.331L229.825 108.636L230.618 108.945L231.41 109.256L232.203 109.57L232.995 109.886L233.788 110.203L234.58 110.523L235.373 110.844L236.165 111.165L236.958 111.487L237.75 111.81L238.543 112.133L239.335 112.455L240.128 112.777L240.92 113.097L241.713 113.417L242.505 113.734L243.298 114.05L244.09 114.364L244.883 114.675L245.675 114.984L246.468 115.289L247.26 115.591L248.053 115.889L248.845 116.183L249.638 116.473L250.43 116.758L251.223 117.038L252.015 117.313L252.808 117.583L253.6 117.847L254.393 118.105L255.185 118.356L255.978 118.602L256.77 118.84L257.563 119.072L258.355 119.297L259.148 119.514L259.94 119.723L260.733 119.925L261.525 120.119L262.318 120.304L263.11 120.481L263.903 120.65L264.695 120.81L265.488 120.961L266.28 121.103L267.073 121.235L267.865 121.359L268.658 121.473L269.45 121.577L270.243 121.672L271.035 121.757L271.828 121.833L272.62 121.898L273.413 121.954L274.205 121.999L274.998 122.034L275.79 122.06L276.583 122.075L277.375 122.08L278.168 122.075L278.96 122.06L279.753 122.034L280.545 121.999L281.338 121.954L282.13 121.898L282.923 121.833L283.715 121.757L284.508 121.672L285.3 121.577L286.093 121.473L286.885 121.359L287.678 121.235L288.47 121.103L289.263 120.961L290.055 120.81L290.848 120.65L291.64 120.481L292.433 120.304L293.225 120.119L294.018 119.925L294.81 119.723L295.603 119.514L296.395 119.297L297.188 119.072L297.98 118.84L298.773 118.602L299.565 118.356L300.358 118.105L301.15 117.847L301.943 117.583L302.735 117.313L303.528 117.038L304.32 116.758L305.113 116.473L305.905 116.183L306.698 115.889L307.49 115.591L308.283 115.289L309.075 114.984L309.868 114.675L310.66 114.364L311.453 114.05L312.245 113.734L313.038 113.417L313.83 113.097L314.623 112.777L315.415 112.455L316.208 112.133" stroke="url(#paint0_linear_10_81)" stroke-width="4" stroke-miterlimit="10" stroke-linecap="round" stroke-linejoin="round"></path><path d="M0 81.185L0.7925 80.8624L1.585 80.5402L2.3775 80.2185L3.17 79.8979L3.9625 79.5785L4.755 79.2606L5.5475 78.9447L6.34 78.631L7.1325 78.3198L7.925 78.0114L8.7175 77.7062L9.51 77.4044L10.3025 77.1063L11.095 76.8123L11.8875 76.5226L12.68 76.2374L13.4725 75.9572L14.265 75.6821L15.0575 75.4124L15.85 75.1485L16.6425 74.8905L17.435 74.6387L18.2275 74.3934L19.02 74.1547L19.8125 73.9231L20.605 73.6985L21.3975 73.4814L22.19 73.2719L22.9825 73.0701L23.775 72.8764L24.5675 72.6909L25.36 72.5138L26.1525 72.3452L26.945 72.1854L27.7375 72.0344L28.53 71.8925L29.3225 71.7597L30.115 71.6362L30.9075 71.5222L31.7 71.4177L32.4925 71.3228L33.285 71.2377L34.0775 71.1624L34.87 71.0969L35.6625 71.0415L36.455 70.996L37.2475 70.9606L38.04 70.9353L38.8325 70.9201L39.625 70.915L40.4175 70.9201L41.21 70.9353L42.0025 70.9606L42.795 70.996L43.5875 71.0415L44.38 71.0969L45.1725 71.1624L45.965 71.2377L46.7575 71.3228L47.55 71.4177L48.3425 71.5222L49.135 71.6362L49.9275 71.7597L50.72 71.8925L51.5125 72.0344L52.305 72.1854L53.0975 72.3452L53.89 72.5138L54.6825 72.6909L55.475 72.8764L56.2675 73.0701L57.06 73.2719L57.8525 73.4814L58.645 73.6985L59.4375 73.9231L60.23 74.1547L61.0225 74.3934L61.815 74.6387L62.6075 74.8905L63.4 75.1485L64.1925 75.4124L64.985 75.6821L65.7775 75.9572L66.57 76.2374L67.3625 76.5226L68.155 76.8123L68.9475 77.1063L69.74 77.4044L70.5325 77.7062L71.325 78.0114L72.1175 78.3198L72.91 78.631L73.7025 78.9447L74.495 79.2606L75.2875 79.5785L76.08 79.8979L76.8725 80.2185L77.665 80.5402L78.4575 80.8624L79.25 81.185L80.0425 81.5076L80.835 81.8299L81.6275 82.1515L82.42 82.4722L83.2125 82.7916L84.005 83.1094L84.7975 83.4254L85.59 83.7391L86.3825 84.0503L87.175 84.3586L87.9675 84.6639L88.76 84.9657L89.5525 85.2637L90.345 85.5578L91.1375 85.8475L91.93 86.1326L92.7225 86.4129L93.515 86.688L94.3075 86.9576L95.1 87.2216L95.8925 87.4796L96.685 87.7314L97.4775 87.9767L98.27 88.2153L99.0625 88.447L99.855 88.6715L100.648 88.8887L101.44 89.0982L102.233 89.2999L103.025 89.4936L103.818 89.6792L104.61 89.8563L105.403 90.0249L106.195 90.1847L106.988 90.3357L107.78 90.4776L108.573 90.6104L109.365 90.7338L110.158 90.8479L110.95 90.9524L111.743 91.0473L112.535 91.1324L113.328 91.2077L114.12 91.2731L114.913 91.3286L115.705 91.3741L116.498 91.4095L117.29 91.4348L118.083 91.45L118.875 91.455L119.668 91.45L120.46 91.4348L121.253 91.4095L122.045 91.3741L122.838 91.3286L123.63 91.2731L124.423 91.2077L125.215 91.1324L126.008 91.0473L126.8 90.9524L127.593 90.8479L128.385 90.7338L129.178 90.6104L129.97 90.4776L130.763 90.3357L131.555 90.1847L132.348 90.0249L133.14 89.8563L133.933 89.6792L134.725 89.4936L135.518 89.2999L136.31 89.0982L137.103 88.8887L137.895 88.6715L138.688 88.447L139.48 88.2153L140.273 87.9767L141.065 87.7314L141.858 87.4796L142.65 87.2216L143.443 86.9576L144.235 86.688L145.028 86.4129L145.82 86.1326L146.613 85.8475L147.405 85.5578L148.198 85.2637L148.99 84.9657L149.783 84.6639L150.575 84.3586L151.368 84.0503L152.16 83.7391L152.953 83.4254L153.745 83.1094L154.538 82.7916L155.33 82.4722L156.123 82.1515L156.915 81.8299L157.708 81.5076L158.5 81.185L159.293 80.8624L160.085 80.5402L160.878 80.2185L161.67 79.8979L162.463 79.5785L163.255 79.2606L164.048 78.9447L164.84 78.631L165.633 78.3198L166.425 78.0114L167.218 77.7062L168.01 77.4044L168.803 77.1063L169.595 76.8123L170.388 76.5226L171.18 76.2374L171.973 75.9572L172.765 75.6821L173.558 75.4124L174.35 75.1485L175.143 74.8905L175.935 74.6387L176.728 74.3934L177.52 74.1547L178.313 73.9231L179.105 73.6985L179.898 73.4814L180.69 73.2719L181.483 73.0701L182.275 72.8764L183.068 72.6909L183.86 72.5138L184.653 72.3452L185.445 72.1854L186.238 72.0344L187.03 71.8925L187.823 71.7597L188.615 71.6362L189.408 71.5222L190.2 71.4177L190.993 71.3228L191.785 71.2377L192.578 71.1624L193.37 71.0969L194.163 71.0415L194.955 70.996L195.748 70.9606L196.54 70.9353L197.333 70.9201L198.125 70.915L198.918 70.9201L199.71 70.9353L200.503 70.9606L201.295 70.996L202.088 71.0415L202.88 71.0969L203.673 71.1624L204.465 71.2377L205.258 71.3228L206.05 71.4177L206.843 71.5222L207.635 71.6362L208.428 71.7597L209.22 71.8925L210.013 72.0344L210.805 72.1854L211.598 72.3452L212.39 72.5138L213.183 72.6909L213.975 72.8764L214.768 73.0701L215.56 73.2719L216.353 73.4814L217.145 73.6985L217.938 73.9231L218.73 74.1547L219.523 74.3934L220.315 74.6387L221.108 74.8905L221.9 75.1485L222.693 75.4124L223.485 75.6821L224.278 75.9572L225.07 76.2374L225.863 76.5226L226.655 76.8123L227.448 77.1063L228.24 77.4044L229.033 77.7062L229.825 78.0114L230.618 78.3198L231.41 78.631L232.203 78.9447L232.995 79.2606L233.788 79.5785L234.58 79.8979L235.373 80.2185L236.165 80.5402L236.958 80.8624L237.75 81.185L238.543 81.5076L239.335 81.8299L240.128 82.1515L240.92 82.4722L241.713 82.7916L242.505 83.1094L243.298 83.4254L244.09 83.7391L244.883 84.0503L245.675 84.3586L246.468 84.6639L247.26 84.9657L248.053 85.2637L248.845 85.5578L249.638 85.8475L250.43 86.1326L251.223 86.4129L252.015 86.688L252.808 86.9576L253.6 87.2216L254.393 87.4796L255.185 87.7314L255.978 87.9767L256.77 88.2153L257.563 88.447L258.355 88.6715L259.148 88.8887L259.94 89.0982L260.733 89.2999L261.525 89.4936L262.318 89.6792L263.11 89.8563L263.903 90.0249L264.695 90.1847L265.488 90.3357L266.28 90.4776L267.073 90.6104L267.865 90.7338L268.658 90.8479L269.45 90.9524L270.243 91.0473L271.035 91.1324L271.828 91.2077L272.62 91.2731L273.413 91.3286L274.205 91.3741L274.998 91.4095L275.79 91.4348L276.583 91.45L277.375 91.455L278.168 91.45L278.96 91.4348L279.753 91.4095L280.545 91.3741L281.338 91.3286L282.13 91.2731L282.923 91.2077L283.715 91.1324L284.508 91.0473L285.3 90.9524L286.093 90.8479L286.885 90.7338L287.678 90.6104L288.47 90.4776L289.263 90.3357L290.055 90.1847L290.848 90.0249L291.64 89.8563L292.433 89.6792L293.225 89.4936L294.018 89.2999L294.81 89.0982L295.603 88.8887L296.395 88.6715L297.188 88.447L297.98 88.2153L298.773 87.9767L299.565 87.7314L300.358 87.4796L301.15 87.2216L301.943 86.9576L302.735 86.688L303.528 86.4129L304.32 86.1326L305.113 85.8475L305.905 85.5578L306.698 85.2637L307.49 84.9657L308.283 84.6639L309.075 84.3586L309.868 84.0503L310.66 83.7391L311.453 83.4254L312.245 83.1094L313.038 82.7916L313.83 82.4722L314.623 82.1515L315.415 81.8299L316.208 81.5076" stroke="url(#paint1_linear_10_81)" stroke-width="4" stroke-miterlimit="10" stroke-linecap="round" stroke-linejoin="round"></path><path d="M0 50.56L0.7925 50.2374L1.585 49.9152L2.3775 49.5935L3.17 49.2729L3.9625 48.9535L4.755 48.6356L5.5475 48.3197L6.34 48.006L7.1325 47.6948L7.925 47.3864L8.7175 47.0812L9.51 46.7794L10.3025 46.4813L11.095 46.1873L11.8875 45.8976L12.68 45.6124L13.4725 45.3322L14.265 45.0571L15.0575 44.7874L15.85 44.5235L16.6425 44.2655L17.435 44.0137L18.2275 43.7684L19.02 43.5297L19.8125 43.2981L20.605 43.0735L21.3975 42.8564L22.19 42.6469L22.9825 42.4451L23.775 42.2514L24.5675 42.0659L25.36 41.8888L26.1525 41.7202L26.945 41.5604L27.7375 41.4094L28.53 41.2675L29.3225 41.1347L30.115 41.0112L30.9075 40.8972L31.7 40.7927L32.4925 40.6978L33.285 40.6127L34.0775 40.5374L34.87 40.4719L35.6625 40.4165L36.455 40.371L37.2475 40.3356L38.04 40.3103L38.8325 40.2951L39.625 40.29L40.4175 40.2951L41.21 40.3103L42.0025 40.3356L42.795 40.371L43.5875 40.4165L44.38 40.4719L45.1725 40.5374L45.965 40.6127L46.7575 40.6978L47.55 40.7927L48.3425 40.8972L49.135 41.0112L49.9275 41.1347L50.72 41.2675L51.5125 41.4094L52.305 41.5604L53.0975 41.7202L53.89 41.8888L54.6825 42.0659L55.475 42.2514L56.2675 42.4451L57.06 42.6469L57.8525 42.8564L58.645 43.0735L59.4375 43.2981L60.23 43.5297L61.0225 43.7684L61.815 44.0137L62.6075 44.2655L63.4 44.5235L64.1925 44.7874L64.985 45.0571L65.7775 45.3322L66.57 45.6124L67.3625 45.8976L68.155 46.1873L68.9475 46.4813L69.74 46.7794L70.5325 47.0812L71.325 47.3864L72.1175 47.6948L72.91 48.006L73.7025 48.3197L74.495 48.6356L75.2875 48.9535L76.08 49.2729L76.8725 49.5935L77.665 49.9152L78.4575 50.2374L79.25 50.56L80.0425 50.8826L80.835 51.2049L81.6275 51.5265L82.42 51.8472L83.2125 52.1666L84.005 52.4844L84.7975 52.8004L85.59 53.1141L86.3825 53.4253L87.175 53.7336L87.9675 54.0389L88.76 54.3407L89.5525 54.6387L90.345 54.9328L91.1375 55.2225L91.93 55.5076L92.7225 55.7879L93.515 56.063L94.3075 56.3326L95.1 56.5966L95.8925 56.8546L96.685 57.1064L97.4775 57.3517L98.27 57.5903L99.0625 57.822L99.855 58.0465L100.648 58.2637L101.44 58.4732L102.233 58.6749L103.025 58.8686L103.818 59.0542L104.61 59.2313L105.403 59.3999L106.195 59.5597L106.988 59.7107L107.78 59.8526L108.573 59.9854L109.365 60.1088L110.158 60.2229L110.95 60.3274L111.743 60.4223L112.535 60.5074L113.328 60.5827L114.12 60.6481L114.913 60.7036L115.705 60.7491L116.498 60.7845L117.29 60.8098L118.083 60.825L118.875 60.83L119.668 60.825L120.46 60.8098L121.253 60.7845L122.045 60.7491L122.838 60.7036L123.63 60.6481L124.423 60.5827L125.215 60.5074L126.008 60.4223L126.8 60.3274L127.593 60.2229L128.385 60.1088L129.178 59.9854L129.97 59.8526L130.763 59.7107L131.555 59.5597L132.348 59.3999L133.14 59.2313L133.933 59.0542L134.725 58.8686L135.518 58.6749L136.31 58.4732L137.103 58.2637L137.895 58.0465L138.688 57.822L139.48 57.5903L140.273 57.3517L141.065 57.1064L141.858 56.8546L142.65 56.5966L143.443 56.3326L144.235 56.063L145.028 55.7879L145.82 55.5076L146.613 55.2225L147.405 54.9328L148.198 54.6387L148.99 54.3407L149.783 54.0389L150.575 53.7336L151.368 53.4253L152.16 53.1141L152.953 52.8004L153.745 52.4844L154.538 52.1666L155.33 51.8472L156.123 51.5265L156.915 51.2049L157.708 50.8826L158.5 50.56L159.293 50.2374L160.085 49.9152L160.878 49.5935L161.67 49.2729L162.463 48.9535L163.255 48.6356L164.048 48.3197L164.84 48.006L165.633 47.6948L166.425 47.3864L167.218 47.0812L168.01 46.7794L168.803 46.4813L169.595 46.1873L170.388 45.8976L171.18 45.6124L171.973 45.3322L172.765 45.0571L173.558 44.7874L174.35 44.5235L175.143 44.2655L175.935 44.0137L176.728 43.7684L177.52 43.5297L178.313 43.2981L179.105 43.0735L179.898 42.8564L180.69 42.6469L181.483 42.4451L182.275 42.2514L183.068 42.0659L183.86 41.8888L184.653 41.7202L185.445 41.5604L186.238 41.4094L187.03 41.2675L187.823 41.1347L188.615 41.0112L189.408 40.8972L190.2 40.7927L190.993 40.6978L191.785 40.6127L192.578 40.5374L193.37 40.4719L194.163 40.4165L194.955 40.371L195.748 40.3356L196.54 40.3103L197.333 40.2951L198.125 40.29L198.918 40.2951L199.71 40.3103L200.503 40.3356L201.295 40.371L202.088 40.4165L202.88 40.4719L203.673 40.5374L204.465 40.6127L205.258 40.6978L206.05 40.7927L206.843 40.8972L207.635 41.0112L208.428 41.1347L209.22 41.2675L210.013 41.4094L210.805 41.5604L211.598 41.7202L212.39 41.8888L213.183 42.0659L213.975 42.2514L214.768 42.4451L215.56 42.6469L216.353 42.8564L217.145 43.0735L217.938 43.2981L218.73 43.5297L219.523 43.7684L220.315 44.0137L221.108 44.2655L221.9 44.5235L222.693 44.7874L223.485 45.0571L224.278 45.3322L225.07 45.6124L225.863 45.8976L226.655 46.1873L227.448 46.4813L228.24 46.7794L229.033 47.0812L229.825 47.3864L230.618 47.6948L231.41 48.006L232.203 48.3197L232.995 48.6356L233.788 48.9535L234.58 49.2729L235.373 49.5935L236.165 49.9152L236.958 50.2374L237.75 50.56L238.543 50.8826L239.335 51.2049L240.128 51.5265L240.92 51.8472L241.713 52.1666L242.505 52.4844L243.298 52.8004L244.09 53.1141L244.883 53.4253L245.675 53.7336L246.468 54.0389L247.26 54.3407L248.053 54.6387L248.845 54.9328L249.638 55.2225L250.43 55.5076L251.223 55.7879L252.015 56.063L252.808 56.3326L253.6 56.5966L254.393 56.8546L255.185 57.1064L255.978 57.3517L256.77 57.5903L257.563 57.822L258.355 58.0465L259.148 58.2637L259.94 58.4732L260.733 58.6749L261.525 58.8686L262.318 59.0542L263.11 59.2313L263.903 59.3999L264.695 59.5597L265.488 59.7107L266.28 59.8526L267.073 59.9854L267.865 60.1088L268.658 60.2229L269.45 60.3274L270.243 60.4223L271.035 60.5074L271.828 60.5827L272.62 60.6481L273.413 60.7036L274.205 60.7491L274.998 60.7845L275.79 60.8098L276.583 60.825L277.375 60.83L278.168 60.825L278.96 60.8098L279.753 60.7845L280.545 60.7491L281.338 60.7036L282.13 60.6481L282.923 60.5827L283.715 60.5074L284.508 60.4223L285.3 60.3274L286.093 60.2229L286.885 60.1088L287.678 59.9854L288.47 59.8526L289.263 59.7107L290.055 59.5597L290.848 59.3999L291.64 59.2313L292.433 59.0542L293.225 58.8686L294.018 58.6749L294.81 58.4732L295.603 58.2637L296.395 58.0465L297.188 57.822L297.98 57.5903L298.773 57.3517L299.565 57.1064L300.358 56.8546L301.15 56.5966L301.943 56.3326L302.735 56.063L303.528 55.7879L304.32 55.5076L305.113 55.2225L305.905 54.9328L306.698 54.6387L307.49 54.3407L308.283 54.0389L309.075 53.7336L309.868 53.4253L310.66 53.1141L311.453 52.8004L312.245 52.4844L313.038 52.1666L313.83 51.8472L314.623 51.5265L315.415 51.2049L316.208 50.8826" stroke="url(#paint2_linear_10_81)" stroke-width="4" stroke-miterlimit="10" stroke-linecap="round" stroke-linejoin="round"></path></g><defs><linearGradient id="paint0_linear_10_81" x1="0" y1="111.81" x2="316.208" y2="111.81" gradientUnits="userSpaceOnUse"><stop stop-color="white" stop-opacity="0.61"></stop><stop offset="1" stop-color="white" stop-opacity="0"></stop></linearGradient><linearGradient id="paint1_linear_10_81" x1="0" y1="81.185" x2="316.208" y2="81.185" gradientUnits="userSpaceOnUse"><stop stop-color="white" stop-opacity="0.61"></stop><stop offset="1" stop-color="white" stop-opacity="0"></stop></linearGradient><linearGradient id="paint2_linear_10_81" x1="0" y1="50.56" x2="316.208" y2="50.56" gradientUnits="userSpaceOnUse"><stop stop-color="white" stop-opacity="0.61"></stop><stop offset="1" stop-color="white" stop-opacity="0"></stop></linearGradient><clipPath id="clip0_10_81"><rect width="317" height="158" fill="white"></rect></clipPath></defs></svg>